<svg viewBox="0 0 211.8 81.903" xmlns="http://www.w3.org/2000/svg"><g id="svgGroup" stroke-linecap="round" fill-rule="evenodd" stroke="#6d10ca" stroke-width="1mm" fill="#6d10ca" style="stroke:#035af0;stroke-width:0.2mm;fill:#6d10ca"><path d="M 105 81.901 Q 98.6 81.901 97.7 73.301 Q 97.4 70.401 97.4 67.501 A 50.216 50.216 0 0 1 98.105 59.296 A 63.166 63.166 0 0 1 99.25 53.901 A 115.67 115.67 0 0 1 102.697 42.883 A 133.928 133.928 0 0 1 104.15 39.101 Q 107.2 31.501 111.05 23.801 Q 114.9 16.101 118.9 8.801 A 6.357 6.357 0 0 0 119.254 8.174 Q 119.588 7.487 119.6 6.939 A 1.853 1.853 0 0 0 119.6 6.901 A 1.452 1.452 0 0 0 119.581 6.654 Q 119.502 6.201 119.1 6.201 A 2.646 2.646 0 0 0 118.101 6.469 Q 115.697 7.521 109.8 12.701 Q 105.8 16.201 102.3 20.151 Q 98.8 24.101 96 27.601 A 3206.497 3206.497 0 0 0 93.312 31.072 Q 92.259 32.433 91.319 33.653 A 1596.172 1596.172 0 0 0 89.55 35.951 Q 87.288 38.895 85.937 40.929 A 40.861 40.861 0 0 0 85.5 41.601 Q 83.89 44.016 81.68 47.751 A 256.252 256.252 0 0 0 81.15 48.651 Q 78.6 53.001 75.2 58.901 Q 75.1 59.001 72.5 65.101 Q 70.8 69.201 69.7 69.201 Q 68 69.001 66.65 67.851 A 4.19 4.19 0 0 1 66.03 67.206 Q 65.474 66.477 65.474 65.658 A 2.523 2.523 0 0 1 65.5 65.301 A 35.374 35.374 0 0 1 65.979 62.369 Q 66.688 58.876 68.2 54.201 Q 69.713 49.526 72.076 43.622 A 282.596 282.596 0 0 1 74.4 38.001 A 919.811 919.811 0 0 0 76.158 33.754 Q 81.823 19.964 81.899 18.245 A 1.009 1.009 0 0 0 81.9 18.201 A 1.09 1.09 0 0 0 81.289 17.161 Q 80.835 16.922 80.042 16.902 A 5.828 5.828 0 0 0 79.9 16.901 Q 73.693 16.901 60.619 31.286 A 201.014 201.014 0 0 0 55.8 36.801 A 226.358 226.358 0 0 0 49.221 44.99 Q 40.026 57.047 38.015 63.999 A 15.685 15.685 0 0 0 37.6 65.801 A 3.021 3.021 0 0 1 36.608 67.635 A 4.439 4.439 0 0 1 36 68.101 A 5.785 5.785 0 0 1 34.484 68.803 A 4.941 4.941 0 0 1 33.1 69.001 A 3.445 3.445 0 0 1 32.536 68.959 Q 31.535 68.792 31.501 67.96 A 1.452 1.452 0 0 1 31.5 67.901 A 15.931 15.931 0 0 1 31.969 64.47 Q 33.644 57.138 41.3 41.201 A 2344.79 2344.79 0 0 0 43.827 35.994 Q 48.29 26.765 49.619 23.753 A 39.403 39.403 0 0 0 49.9 23.101 A 114.564 114.564 0 0 0 51.65 18.553 Q 52.481 16.239 53.1 14.151 A 40.736 40.736 0 0 0 53.733 11.771 Q 54.3 9.319 54.3 7.601 Q 54.3 5.283 53.406 4.307 A 2.087 2.087 0 0 0 52.9 3.901 Q 51.5 3.101 48.3 3.101 A 39.229 39.229 0 0 0 40.047 4.047 Q 36.198 4.877 31.95 6.436 A 87.965 87.965 0 0 0 25.1 9.301 Q 21.1 11.201 17.6 13.701 Q 14.1 16.201 11 19.401 Q 5.046 25.625 4.463 30.792 A 9.886 9.886 0 0 0 4.4 31.901 A 12.485 12.485 0 0 0 4.55 33.874 A 9.898 9.898 0 0 0 4.9 35.351 A 5.346 5.346 0 0 0 6.023 37.276 A 7.169 7.169 0 0 0 6.9 38.101 A 5.68 5.68 0 0 0 7.962 38.787 Q 8.981 39.307 10.45 39.651 Q 12.8 40.201 15.6 40.201 A 34.91 34.91 0 0 0 23.168 39.346 A 39.732 39.732 0 0 0 24.6 39.001 A 0.746 0.746 0 0 1 24.745 38.948 Q 24.925 38.901 25.2 38.901 Q 25.582 38.901 25.599 39.174 A 0.421 0.421 0 0 1 25.6 39.201 A 0.984 0.984 0 0 1 25.42 39.744 Q 25.177 40.113 24.608 40.491 A 7.146 7.146 0 0 1 24 40.851 A 13.096 13.096 0 0 1 22.56 41.5 Q 21.405 41.944 19.95 42.301 Q 17.5 42.901 14.8 42.901 A 27.209 27.209 0 0 1 6.335 41.599 A 25.663 25.663 0 0 1 5.2 41.201 A 8.428 8.428 0 0 1 2.348 39.523 Q 0.633 37.947 0.171 35.406 A 11.205 11.205 0 0 1 0 33.401 A 15.921 15.921 0 0 1 0.795 28.553 Q 1.405 26.638 2.484 24.643 A 28.54 28.54 0 0 1 2.9 23.901 A 23.616 23.616 0 0 1 5.342 20.544 Q 6.718 18.945 8.526 17.296 A 55.427 55.427 0 0 1 11.6 14.701 Q 15.1 12.001 20.05 9.351 A 88.572 88.572 0 0 1 30.204 4.732 A 96.611 96.611 0 0 1 30.55 4.601 A 84.871 84.871 0 0 1 40.869 1.41 A 77.944 77.944 0 0 1 41.55 1.251 Q 46.819 0.042 51.2 0.002 A 32.744 32.744 0 0 1 51.5 0.001 Q 59.719 0.001 60.083 5.845 A 8.919 8.919 0 0 1 60.1 6.401 Q 60.1 8.957 58.505 13.619 A 70.683 70.683 0 0 1 57.6 16.101 A 154.455 154.455 0 0 1 55.458 21.355 Q 53.45 26.051 50.7 31.801 Q 47.6 38.301 44.7 44.651 Q 41.8 51.001 38.6 57.501 A 0.004 0.004 0 0 0 38.604 57.503 Q 38.832 57.503 49 42.301 Q 51.6 38.501 55.25 34.151 Q 58.9 29.801 63.8 25.101 Q 72.7 16.501 77.4 13.901 Q 80.1 12.401 82.8 12.401 Q 86.069 12.401 86.732 15.071 A 6.367 6.367 0 0 1 86.9 16.601 Q 86.9 18.101 86.5 19.601 A 523.465 523.465 0 0 0 84.499 24.562 Q 82.725 29.019 80.6 34.551 Q 77.2 43.401 72.8 55.101 Q 72.6 55.701 72.6 55.901 A 0.144 0.144 0 0 0 72.605 55.94 Q 72.618 55.985 72.663 55.996 A 0.147 0.147 0 0 0 72.7 56.001 A 0.51 0.51 0 0 0 72.931 55.821 Q 73.94 54.747 78.748 47.248 A 723.446 723.446 0 0 0 80.5 44.501 Q 84.551 37.979 87.48 33.655 A 178.605 178.605 0 0 1 87.55 33.551 Q 90.5 29.201 92.2 27.201 A 289.443 289.443 0 0 1 98.831 19.269 Q 108.3 8.376 114.9 3.501 A 13.316 13.316 0 0 1 120.728 1.051 A 18.107 18.107 0 0 1 123.8 0.801 A 10.82 10.82 0 0 1 125.329 0.899 Q 127.123 1.157 127.834 2.088 A 2.42 2.42 0 0 1 128.3 3.601 A 4.556 4.556 0 0 1 128.033 5.059 Q 127.593 6.355 126.428 7.957 A 22.323 22.323 0 0 1 125.7 8.901 A 84.616 84.616 0 0 0 118.328 20.037 Q 115.119 25.757 112.2 32.633 A 174.068 174.068 0 0 0 108.8 41.301 Q 106.197 48.574 104.444 54.294 A 174.71 174.71 0 0 0 103.45 57.651 Q 101.5 64.501 101.5 70.301 Q 101.5 75.398 102.509 77.229 A 3.431 3.431 0 0 0 102.55 77.301 A 3.94 3.94 0 0 0 103.417 78.353 Q 104.255 79.054 105.441 79.098 A 4.321 4.321 0 0 0 105.6 79.101 A 10.119 10.119 0 0 0 107.158 78.974 A 13.707 13.707 0 0 0 108.65 78.651 Q 110.297 78.202 112.292 77.503 A 56.677 56.677 0 0 0 112.3 77.501 Q 112.658 77.411 112.896 77.362 A 7.285 7.285 0 0 1 112.95 77.351 A 2.842 2.842 0 0 1 113.159 77.317 Q 113.288 77.301 113.4 77.301 A 1.246 1.246 0 0 1 113.57 77.311 Q 113.759 77.337 113.84 77.428 A 0.25 0.25 0 0 1 113.9 77.601 A 1.021 1.021 0 0 1 113.696 78.167 Q 113.232 78.849 111.718 79.712 A 20.126 20.126 0 0 1 111 80.101 A 14.706 14.706 0 0 1 108.42 81.299 Q 106.69 81.896 105.026 81.901 A 9.328 9.328 0 0 1 105 81.901 Z M 157 40.801 L 167.7 23.501 A 93.251 93.251 0 0 0 169.699 20.103 Q 171.416 17.029 172.4 14.601 A 31.156 31.156 0 0 0 173.125 12.638 Q 173.771 10.675 173.879 9.25 A 7.295 7.295 0 0 0 173.9 8.701 A 4.916 4.916 0 0 0 173.736 7.379 Q 173.272 5.717 171.5 5.201 Q 166.7 3.701 162.2 3.701 A 36.222 36.222 0 0 0 155.952 4.292 Q 149.588 5.411 141.527 8.65 A 113.258 113.258 0 0 0 141.4 8.701 A 46.718 46.718 0 0 0 128.003 17.117 A 53.929 53.929 0 0 0 126.5 18.501 Q 119.4 25.401 119.4 31.001 A 6.301 6.301 0 0 0 121.159 35.373 A 9.553 9.553 0 0 0 122.4 36.501 A 7.026 7.026 0 0 0 124.303 37.479 Q 126.648 38.301 130.5 38.301 A 13.94 13.94 0 0 0 131.12 38.284 Q 132.303 38.23 134.6 38.001 Q 137.6 37.701 142.5 37.001 L 139 38.001 Q 135.701 38.966 133.017 39.511 A 47.134 47.134 0 0 1 131.75 39.751 Q 129.338 40.172 127.425 40.27 A 21.863 21.863 0 0 1 126.3 40.301 A 22.596 22.596 0 0 1 122.245 39.949 A 19.146 19.146 0 0 1 120 39.401 A 7.541 7.541 0 0 1 117.338 37.943 Q 115.764 36.566 115.297 34.287 A 10.393 10.393 0 0 1 115.1 32.201 A 14.316 14.316 0 0 1 117.321 24.582 A 17.77 17.77 0 0 1 117.9 23.701 A 32.267 32.267 0 0 1 123.004 18.125 Q 129.175 12.68 139.8 7.501 Q 152.1 1.601 165.6 1.601 A 35.104 35.104 0 0 1 169.942 1.846 Q 177.663 2.814 178.7 7.601 A 2.006 2.006 0 0 1 178.746 7.969 Q 178.866 10.893 172.836 21.795 A 210.967 210.967 0 0 1 172.5 22.401 L 166.65 32.801 A 6560.216 6560.216 0 0 1 165.585 34.694 Q 164.547 36.538 163.762 37.929 A 1887.282 1887.282 0 0 1 163.1 39.101 Q 161.8 41.401 161.1 42.701 A 37.183 37.183 0 0 0 160.617 43.626 Q 160.434 43.992 160.279 44.323 A 18.322 18.322 0 0 0 160 44.951 A 32.651 32.651 0 0 0 159.686 45.726 Q 159.549 46.076 159.403 46.47 A 66.644 66.644 0 0 0 159.1 47.301 Q 156.8 53.601 156.8 57.701 A 11.019 11.019 0 0 0 157.123 60.495 Q 158.061 64.065 161.732 64.742 A 10.311 10.311 0 0 0 163.6 64.901 Q 164.4 64.901 165.4 64.751 Q 166.4 64.601 167.5 64.401 A 37.858 37.858 0 0 0 184.057 55.733 Q 188.583 51.788 192.621 46.219 A 73.183 73.183 0 0 0 194.1 44.101 A 92.887 92.887 0 0 0 198.633 36.706 Q 202.9 28.894 204 22.501 Q 204.086 21.388 206.078 21.228 A 9.055 9.055 0 0 1 206.8 21.201 Q 208.6 21.201 210.2 21.851 A 4.466 4.466 0 0 1 210.86 22.179 Q 211.183 22.378 211.395 22.608 A 1.427 1.427 0 0 1 211.8 23.601 A 0.316 0.316 0 0 1 211.793 23.656 Q 211.768 23.785 211.654 24.136 A 20.867 20.867 0 0 1 211.6 24.301 Q 207.6 30.701 204.35 37.101 Q 201.1 43.501 198.7 49.901 Q 195.143 59.197 194.462 65.03 A 22.242 22.242 0 0 0 194.3 67.601 A 10.986 10.986 0 0 0 194.352 68.714 Q 194.492 70.074 195 70.801 Q 196.3 72.701 196.3 73.601 A 0.576 0.576 0 0 1 196.28 73.759 Q 196.229 73.936 196.048 73.984 A 0.589 0.589 0 0 1 195.9 74.001 Q 194.278 74.001 192.291 71.886 A 16.639 16.639 0 0 1 191.6 71.101 A 4.373 4.373 0 0 1 190.919 69.809 Q 190.513 68.629 190.501 66.912 A 15.063 15.063 0 0 1 190.5 66.801 Q 190.5 57.301 200.2 36.901 A 93.179 93.179 0 0 1 193.105 47.986 A 69.99 69.99 0 0 1 185.1 57.001 A 46.561 46.561 0 0 1 177.904 62.596 Q 173.156 65.546 168.334 66.606 A 25.237 25.237 0 0 1 162.9 67.201 Q 161.8 67.201 160.6 67.101 A 24.51 24.51 0 0 1 158.716 66.872 A 21.942 21.942 0 0 1 158.3 66.801 A 7.317 7.317 0 0 1 154.715 65.111 Q 152.364 62.998 152.127 58.532 A 19.462 19.462 0 0 1 152.1 57.501 Q 152.1 53.301 153.3 49.101 A 32.556 32.556 0 0 1 155.831 42.857 A 37.946 37.946 0 0 1 157 40.801 Z" vector-effect="non-scaling-stroke"/></g></svg>